<svg xmlns="http://www.w3.org/2000/svg" version="1.1" xmlns:xlink="http://www.w3.org/1999/xlink" xmlns:svgjs="http://svgjs.dev/svgjs" width="1440" height="560" preserveAspectRatio="none" viewBox="0 0 1440 560"><g mask="url(&quot;#SvgjsMask1006&quot;)" fill="none"><path d="M -417.6053876760137,463 C -321.61,395.2 -129.61,139 62.39461232398631,124 C 254.39,109 350.39,370.4 542.3946123239863,388 C 734.39,405.6 830.39,227.4 1022.3946123239863,212 C 1214.39,196.6 1418.87,316 1502.3946123239864,311 C 1585.92,306 1452.48,211.8 1440,187" stroke="rgba(20, 47, 158, 1)" stroke-width="2"></path><path d="M -157.68295903473182,350 C -61.68,317.6 130.32,191 322.3170409652682,188 C 514.32,185 610.32,345.4 802.3170409652682,335 C 994.32,324.6 1090.32,138.4 1282.3170409652682,136 C 1474.32,133.6 1730.78,314.8 1762.3170409652682,323 C 1793.85,331.2 1504.46,206.2 1440,177" stroke="rgba(74, 108, 247, 1)" stroke-width="2"></path><path d="M -19.210750683227957,192 C 76.79,241.6 268.79,431.8 460.78924931677204,440 C 652.79,448.2 748.79,230.2 940.789249316772,233 C 1132.79,235.8 1228.79,483.8 1420.789249316772,454 C 1612.79,424.2 1896.95,91 1900.789249316772,84 C 1904.63,77 1532.16,352 1440,419" stroke="rgba(20, 47, 158, 1)" stroke-width="2"></path><path d="M -282.7934055924279,393 C -186.79,341.6 5.21,155 197.20659440757208,136 C 389.21,117 485.21,291 677.2065944075721,298 C 869.21,305 965.21,153.2 1157.206594407572,171 C 1349.21,188.8 1580.65,387.8 1637.206594407572,387 C 1693.77,386.2 1479.44,211 1440,167" stroke="rgba(20, 47, 158, 1)" stroke-width="2"></path><path d="M -505.2824297998184,485 C -409.28,441.4 -217.28,273.4 -25.282429799818402,267 C 166.72,260.6 262.72,481.2 454.7175702001816,453 C 646.72,424.8 742.72,126.8 934.7175702001816,126 C 1126.72,125.2 1313.66,431.8 1414.7175702001816,449 C 1515.77,466.2 1434.94,259.4 1440,212" stroke="rgba(20, 47, 158, 1)" stroke-width="2"></path><path d="M -99.56866550785321,265 C -3.57,299.4 188.43,453.2 380.4313344921468,437 C 572.43,420.8 668.43,212.4 860.4313344921468,184 C 1052.43,155.6 1148.43,304.8 1340.4313344921468,295 C 1532.43,285.2 1800.52,96.8 1820.4313344921468,135 C 1840.35,173.2 1516.09,415.8 1440,486" stroke="rgba(20, 47, 158, 1)" stroke-width="2"></path></g><defs><mask id="SvgjsMask1006"><rect width="1440" height="560" fill="#ffffff"></rect></mask></defs></svg>