<svg xmlns="http://www.w3.org/2000/svg" xmlns:xlink="http://www.w3.org/1999/xlink" width="140" zoomAndPan="magnify" viewBox="0 0 104.88 30.000001" height="40" preserveAspectRatio="xMidYMid meet" version="1.2"><defs><clipPath id="df072de417"><path d="M 3.242188 2.902344 L 30.824219 2.902344 L 30.824219 26.128906 L 3.242188 26.128906 Z M 3.242188 2.902344 "/></clipPath></defs><g id="39bc19bc7c"><g clip-rule="nonzero" clip-path="url(#df072de417)"><path style=" stroke:none;fill-rule:nonzero;fill:#004aad;fill-opacity:1;" d="M 19.433594 9.941406 L 3.242188 26.128906 L 3.242188 19.105469 L 19.433594 2.902344 Z M 14.453125 19.082031 L 14.453125 26.128906 L 25.660156 14.933594 L 25.660156 26.128906 L 30.640625 21.148438 L 30.640625 2.902344 Z M 14.453125 19.082031 "/></g><g style="fill:#ffffff;fill-opacity:1;"><g transform="translate(32.999274, 20.552187)"><path style="stroke:none" d="M 1.0625 -12.1875 L 4.234375 -12.1875 L 7.59375 -4 L 7.734375 -4 L 11.09375 -12.1875 L 14.265625 -12.1875 L 14.265625 0 L 11.765625 0 L 11.765625 -7.921875 L 11.671875 -7.921875 L 8.515625 -0.0625 L 6.8125 -0.0625 L 3.65625 -7.953125 L 3.5625 -7.953125 L 3.5625 0 L 1.0625 0 Z M 1.0625 -12.1875 "/></g></g><g style="fill:#ffffff;fill-opacity:1;"><g transform="translate(48.468628, 20.552187)"><path style="stroke:none" d="M 1.0625 0 L 1.0625 -12.1875 L 9.265625 -12.1875 L 9.265625 -10.0625 L 3.640625 -10.0625 L 3.640625 -7.15625 L 8.84375 -7.15625 L 8.84375 -5.03125 L 3.640625 -5.03125 L 3.640625 -2.125 L 9.296875 -2.125 L 9.296875 0 Z M 1.0625 0 "/></g></g><g style="fill:#ffffff;fill-opacity:1;"><g transform="translate(58.724061, 20.552187)"><path style="stroke:none" d="M 1.0625 0 L 1.0625 -12.1875 L 3.640625 -12.1875 L 3.640625 -2.125 L 8.859375 -2.125 L 8.859375 0 Z M 1.0625 0 "/></g></g><g style="fill:#ffffff;fill-opacity:1;"><g transform="translate(67.748812, 20.552187)"><path style="stroke:none" d="M 12.25 -6.09375 C 12.25 -4.757812 12 -3.625 11.5 -2.6875 C 11 -1.757812 10.316406 -1.050781 9.453125 -0.5625 C 8.597656 -0.0703125 7.628906 0.171875 6.546875 0.171875 C 5.460938 0.171875 4.488281 -0.0703125 3.625 -0.5625 C 2.769531 -1.0625 2.09375 -1.773438 1.59375 -2.703125 C 1.09375 -3.640625 0.84375 -4.769531 0.84375 -6.09375 C 0.84375 -7.414062 1.09375 -8.539062 1.59375 -9.46875 C 2.09375 -10.40625 2.769531 -11.117188 3.625 -11.609375 C 4.488281 -12.097656 5.460938 -12.34375 6.546875 -12.34375 C 7.628906 -12.34375 8.597656 -12.097656 9.453125 -11.609375 C 10.316406 -11.117188 11 -10.40625 11.5 -9.46875 C 12 -8.539062 12.25 -7.414062 12.25 -6.09375 Z M 9.640625 -6.09375 C 9.640625 -7.382812 9.359375 -8.367188 8.796875 -9.046875 C 8.234375 -9.722656 7.484375 -10.0625 6.546875 -10.0625 C 5.609375 -10.0625 4.859375 -9.722656 4.296875 -9.046875 C 3.734375 -8.367188 3.453125 -7.382812 3.453125 -6.09375 C 3.453125 -4.800781 3.734375 -3.8125 4.296875 -3.125 C 4.859375 -2.445312 5.609375 -2.109375 6.546875 -2.109375 C 7.484375 -2.109375 8.234375 -2.445312 8.796875 -3.125 C 9.359375 -3.8125 9.640625 -4.800781 9.640625 -6.09375 Z M 9.640625 -6.09375 "/></g></g><g style="fill:#ffffff;fill-opacity:1;"><g transform="translate(80.840094, 20.552187)"><path style="stroke:none" d="M 1.0625 0 L 1.0625 -12.1875 L 9.125 -12.1875 L 9.125 -10.0625 L 3.640625 -10.0625 L 3.640625 -7.15625 L 8.59375 -7.15625 L 8.59375 -5.03125 L 3.640625 -5.03125 L 3.640625 0 Z M 1.0625 0 "/></g></g><g style="fill:#ffffff;fill-opacity:1;"><g transform="translate(90.631803, 20.552187)"><path style="stroke:none" d="M 0.34375 -12.1875 L 3.234375 -12.1875 L 6 -6.9375 L 6.125 -6.9375 L 8.90625 -12.1875 L 11.796875 -12.1875 L 7.34375 -4.3125 L 7.34375 0 L 4.78125 0 L 4.78125 -4.3125 Z M 0.34375 -12.1875 "/></g></g></g></svg>